<svg xmlns="http://www.w3.org/2000/svg" xmlns:xlink="http://www.w3.org/1999/xlink" version="1.1" x="0px" y="0px" viewBox="0 0 80 100" enable-background="new 0 0 80 80" xml:space="preserve"><g><g><g><path fill="#000000" d="M30.5,54c-3,0-5.5-2.5-5.5-5.5s2.5-5.5,5.5-5.5s5.5,2.5,5.5,5.5S33.5,54,30.5,54z M30.5,45     c-1.9,0-3.5,1.6-3.5,3.5s1.6,3.5,3.5,3.5s3.5-1.6,3.5-3.5S32.4,45,30.5,45z"/></g><g><path fill="#000000" d="M30.5,50c-0.8,0-1.5-0.7-1.5-1.5s0.7-1.5,1.5-1.5s1.5,0.7,1.5,1.5S31.3,50,30.5,50z M30.5,48     c-0.3,0-0.5,0.2-0.5,0.5s0.2,0.5,0.5,0.5s0.5-0.2,0.5-0.5S30.8,48,30.5,48z"/></g></g><g><path fill="#000000" d="M67.9,49H65v-2h2.9c0.6-0.1,1.9-2.3,2.1-3.2c0.4-1.6-0.1-2.8-0.5-3.4c-0.6-0.9-1.3-1.3-1.7-1.3    c-1.2-0.2-3.1-0.6-5-0.9c-2.4-0.5-5.5-1-5.9-1.1l0-2c0.3,0,1.3,0.2,6.2,1.1c1.9,0.4,3.8,0.7,5,0.9c1.1,0.2,2.2,1.1,3,2.2    c0.7,1,1.3,2.7,0.8,5C71.8,45,70.1,49,67.9,49z"/></g><g><path fill="#000000" d="M26,49h-3c-2.8,0-5-2.2-5-5v-4c0-2.8,2.2-5,5-5h4.4l2-4.1c1.2-2.4,3.7-3.9,6.4-3.9h12.9    c2.4,0,4.6,1.2,5.9,3.3l3.2,5.2l-1.7,1.1l-3.2-5.2C52,29.9,50.4,29,48.7,29H35.8c-2,0-3.7,1.1-4.6,2.8L28.6,37H23    c-1.7,0-3,1.3-3,3v4c0,1.7,1.3,3,3,3h3V49z"/></g><g><g><path fill="#000000" d="M60.5,54c-3,0-5.5-2.5-5.5-5.5s2.5-5.5,5.5-5.5s5.5,2.5,5.5,5.5S63.5,54,60.5,54z M60.5,45     c-1.9,0-3.5,1.6-3.5,3.5s1.6,3.5,3.5,3.5s3.5-1.6,3.5-3.5S62.4,45,60.5,45z"/></g><g><path fill="#000000" d="M60.5,50c-0.8,0-1.5-0.7-1.5-1.5s0.7-1.5,1.5-1.5s1.5,0.7,1.5,1.5S61.3,50,60.5,50z M60.5,48     c-0.3,0-0.5,0.2-0.5,0.5s0.2,0.5,0.5,0.5s0.5-0.2,0.5-0.5S60.8,48,60.5,48z"/></g></g><g><polygon fill="#000000" points="57,37 43,37 43,30 53,30 53,32 45,32 45,35 57,35   "/></g><g><path fill="#000000" d="M44,37h-9.1c-0.8,0-1.4-0.4-1.8-1.1c-0.4-0.7-0.4-1.5,0-2.1l1.5-2.5c0.5-0.8,1.4-1.3,2.3-1.3H44v2h-7.1    c-0.2,0-0.5,0.1-0.6,0.3l-1.5,2.5l0.1,0.1H44V37z"/></g><g><rect x="35" y="47" fill="#000000" width="20" height="2"/></g><g><rect x="19" y="39" fill="#000000" width="3" height="2"/></g><g><rect x="67" y="41" fill="#000000" width="4" height="2"/></g><g><rect x="40" y="40" fill="#000000" width="2" height="2"/></g><g><rect x="42" y="42" fill="#000000" width="2" height="2"/></g><g><rect x="44" y="40" fill="#000000" width="2" height="2"/></g><g><rect x="48" y="40" fill="#000000" width="2" height="2"/></g><g><rect x="46" y="42" fill="#000000" width="2" height="2"/></g><g><path fill="#000000" d="M49,28h-2v-2c0-0.5-0.5-1-1.2-1h-5.6c-0.6,0-1.2,0.4-1.2,1v2h-2v-2c0-1.6,1.4-3,3.2-3h5.6    c1.8,0,3.2,1.3,3.2,3V28z"/></g></g><g><rect x="9" y="41" fill="#000000" width="6" height="2"/></g><g><rect x="4" y="36" fill="#000000" width="9" height="2"/></g><g><rect x="9" y="31" fill="#000000" width="14" height="2"/></g><text x="0" y="95" fill="#000000" font-size="5px" font-weight="bold" font-family="'Helvetica Neue', Helvetica, Arial-Unicode, Arial, Sans-serif">Created by Yaroslav Samoilov</text><text x="0" y="100" fill="#000000" font-size="5px" font-weight="bold" font-family="'Helvetica Neue', Helvetica, Arial-Unicode, Arial, Sans-serif">from the Noun Project</text></svg>