<svg xmlns="http://www.w3.org/2000/svg" xmlns:xlink="http://www.w3.org/1999/xlink" version="1.1" x="0px" y="0px" viewBox="0 0 100 125" style="enable-background:new 0 0 100 100;" xml:space="preserve"><style type="text/css">
	.st0{fill-rule:evenodd;clip-rule:evenodd;}
</style><path class="st0" d="M65.428,30.071c-4.232,0-4.232-6.428,0-6.428c23.204,0,35.304,28.289,18.618,44.974  c-4.776,4.775-11.366,7.74-18.618,7.74h-7.669l4.8,4.8c2.992,2.992-1.553,7.537-4.545,4.545L47.249,74.806  c-0.779-1.301-0.554-2.889,0.478-3.936l10.286-10.286c2.992-2.992,7.537,1.553,4.545,4.545l-4.8,4.799  c8.411,0,15.065,0.819,21.741-5.857C92.146,51.426,82.925,30.071,65.428,30.071L65.428,30.071z M37.441,18.843l4.8,4.799h-7.669  c-7.251,0-13.842,2.964-18.617,7.74C-0.733,48.07,11.37,76.357,34.572,76.357c4.232,0,4.232-6.428,0-6.428  c-17.494,0-26.719-21.353-14.072-34c6.676-6.676,13.329-5.857,21.741-5.857l-4.8,4.799c-2.992,2.992,1.553,7.537,4.545,4.545  L52.273,29.13c0.973-0.989,1.21-2.408,0.627-3.661c-0.506-1.087-9.358-9.616-10.913-11.171  C38.994,11.306,34.449,15.851,37.441,18.843z"/><text x="0" y="115" fill="#000000" font-size="5px" font-weight="bold" font-family="'Helvetica Neue', Helvetica, Arial-Unicode, Arial, Sans-serif">Created by Siti Zullyanti Afidah</text><text x="0" y="120" fill="#000000" font-size="5px" font-weight="bold" font-family="'Helvetica Neue', Helvetica, Arial-Unicode, Arial, Sans-serif">from the Noun Project</text></svg>